<?xml version="1.0" encoding="utf-8"?>
<!-- Generator: Adobe Illustrator 16.0.0, SVG Export Plug-In . SVG Version: 6.00 Build 0)  -->
<!DOCTYPE svg PUBLIC "-//W3C//DTD SVG 1.1//EN" "http://www.w3.org/Graphics/SVG/1.1/DTD/svg11.dtd">
<svg version="1.1" id="Layer_1" xmlns="http://www.w3.org/2000/svg" xmlns:xlink="http://www.w3.org/1999/xlink" x="0px" y="0px"
	 width="538.895px" height="158.068px" viewBox="0 0 538.895 158.068" enable-background="new 0 0 538.895 158.068"
	 xml:space="preserve">
<path fill="#ffffff" d="M63.03,119.722c-4.913-4.879-8.922-10.564-11.979-16.831C39.216,98.092,30.783,86.21,30.783,71.247
	c0-12.011,8.489-23.219,20.389-27.82c3.364-6.244,7.866-11.956,13.436-16.903c5.148-4.573,11.071-8.324,17.446-11.167
	c-6.127-1.825-12.573-2.81-19.128-2.81C30.181,12.547,0,36.69,0,71.096c0,36.82,26.406,62.775,62.926,62.775
	c6.09,0,11.89-0.738,17.341-2.112C73.85,128.712,68.024,124.683,63.03,119.722z"/>
<path fill="#0070FF" d="M111.004,105.794c-17.652,0-32.139-14.336-32.139-33.954c0-15.693,14.486-30.028,32.139-30.028
	c9.09,0,17.33,3.804,23.196,9.629l20.222-22.203c-11.604-10.164-27.192-16.098-43.418-16.098c-32.742,0-62.924,24.145-62.924,58.548
	c0,36.819,26.408,62.774,62.924,62.774c18.367,0,34.17-6.568,45.348-17.777l-22.529-20.648
	C127.982,102.156,119.896,105.794,111.004,105.794z"/>


</svg>
